<svg width="58" height="53" fill="none" xmlns="http://www.w3.org/2000/svg"><g clip-path="url(#clip0)"><path d="M26.474 52.98c14.468 0 26.198-11.86 26.198-26.49C52.672 11.86 40.942 0 26.474 0 12.004 0 .274 11.86.274 26.49c0 14.63 11.73 26.49 26.199 26.49z" fill="#B5F2C3"/><path d="M55.361 11.376C52.685 6.078 42.867 5.41 31.597 9.86c-3.224-3.977-8.141-5.51-11.769-3.39-1.257.733-2.224 1.825-2.87 3.146-2.063-.375-4.127-.098-5.932.945-4.224 2.478-5.562 8.379-3.483 13.97-1.757 2.413-2.627 4.94-2.08 7.287.742 3.179 3.757 5.526 8.11 6.846-1.967 2.217-3.547 4.858-4.498 7.646 7.529 6.879 18.62 8.509 27.859 4.482-3.434-5.281-7.239-8.819-12.688-10.938.338-.016 6.432-.798 9.238-1.434 13.558-3.146 22.732-10.694 21.91-18.34-.017-.015 2.224-4.254-.033-8.704z" fill="url(#paint0_linear)"/><path d="M46.479 43.592a24.696 24.696 0 00-8.238-6.488c11.092-3.44 18.234-10.727 17.137-17.035-5.191 6.797-27.44 15.356-42.723 8.95-.629 4.645 2.564 7.58 7.239 9.78 6.965 3.277 11.398 6.993 14.752 12.878a26.46 26.46 0 0011.833-8.085z" fill="url(#paint1_linear)"/><path d="M29.878 10.579c-1.338-2.56-4.45-3.635-7.077-2.397-2.612 1.24-3.805 4.32-2.741 6.994a113.94 113.94 0 019.818-4.597z" fill="#F0F0F0"/><path d="M26.2 12.16c-1.177-2.217-3.256-3.423-4.788-2.706-.484.228-.838.603-1.096 1.108-.017.05-.049.082-.065.13a5.487 5.487 0 00-.193 4.484c1.999-1.06 4.095-2.087 6.142-3.016z" fill="#000"/><path d="M21.393 14.495c-1.74-2.576-5.11-3.57-7.996-2.217-3.208 1.515-4.595 5.363-3.095 8.607.08.163.16.31.242.472 2.321-2.135 6.448-4.613 10.85-6.862z" fill="#F0F0F0"/><path d="M17.282 16.713c-1.419-2.445-3.772-3.733-5.514-2.918-.564.26-1 .717-1.306 1.304-.032.05-.048.098-.08.147a6.573 6.573 0 00-.08 5.64c.08.163.16.31.241.473 1.58-1.45 3.982-3.065 6.74-4.646z" fill="#000"/></g><defs><linearGradient id="paint0_linear" x1="5.453" y1="29.487" x2="57.654" y2="29.239" gradientUnits="userSpaceOnUse"><stop stop-color="#279B53"/><stop offset="1" stop-color="#39E674"/></linearGradient><linearGradient id="paint1_linear" x1="12.576" y1="35.868" x2="51.281" y2="35.868" gradientUnits="userSpaceOnUse"><stop stop-color="#5EDF60"/><stop offset="1" stop-color="#84EE60"/></linearGradient><clipPath id="clip0"><path fill="#fff" transform="translate(.275)" d="M0 0h57v53H0z"/></clipPath></defs></svg>